Coordinates
version=1
nRows=34
nColumns=33
inDegrees=yes

Units are S.I. units (second, meters, Newtons, ...)
Angles are in degrees.

endheader
time	ground_thorax_rot_x	ground_thorax_rot_y	ground_thorax_rot_z	ground_thorax_tx	ground_thorax_ty	ground_thorax_tz	clav_prot_r	clav_elev_r	scapula_abduction_r	scapula_elevation_r	scapula_upward_rot_r	scapula_winging_r	shoulder_elv_r	plane_of_elev_r	axial_rot_r	elbow_flexion_r	pro_sup_r	wrist_flex_r	wrist_dev_r	clav_prot_l	clav_elev_l	scapula_abduction_l	scapula_elevation_l	scapula_upward_rot_l	scapula_winging_l	shoulder_elv_l	plane_of_elev_l	axial_rot_l	elbow_flexion_l	pro_sup_l	wrist_flex_l	wrist_dev_l	
3.2900	32.803981	24.308180	32.021597	-99.896849	857.008181	-50.290653	11.950088	33.532289	24.195559	45.000000	-45.000000	2072.538361	3313.856771	23.779171	180.000000	2883.344041	186.403953	18.740213	13.183879	-6.371037	-45.000000	-39.925003	45.000000	-45.000000	2986.724561	-3163.986230	28.667873	34.102629	2510.263398	-123.516927	-8.373455	1.246598	
3.3000	32.774343	24.306071	32.095522	-99.775741	856.442180	-50.260577	11.853808	33.527011	24.174677	45.000000	-45.000000	2072.547543	3313.853117	23.784692	180.000000	2883.321249	186.369012	18.781593	13.146873	-6.415096	-45.000000	-39.889280	45.000000	-45.000000	2986.690108	-3163.979031	28.585737	33.914199	2510.189839	-120.082223	-7.821327	1.009661	
3.3100	32.725455	24.327624	32.198017	-99.631905	855.898586	-50.233525	11.669328	33.545683	24.086535	45.000000	-45.000000	2072.603872	3313.896346	23.785619	180.000000	2883.322911	186.305587	18.885348	13.006704	-6.503920	-45.000000	-39.834487	45.000000	-45.000000	2986.593151	-3163.876611	28.400673	33.573228	2510.070387	-114.113745	-6.879096	0.390215	
3.3200	32.693482	24.315034	32.284439	-99.446865	855.398921	-50.213597	11.601474	33.550398	24.072709	45.000000	-45.000000	2072.621062	3313.895901	23.785834	180.000000	2883.304503	186.257342	18.942173	12.949221	-6.548826	-45.000000	-39.800378	45.000000	-45.000000	2986.544952	-3163.769421	28.196440	33.099407	2509.987530	-104.719686	-5.578099	-0.717694	
3.3300	32.663012	24.293201	32.380510	-99.209546	854.949494	-50.200065	11.581711	33.559861	24.082271	45.000000	-45.000000	2072.625435	3313.887179	23.787983	180.000000	2883.284445	186.198373	18.984993	12.906770	-6.580382	-45.000000	-39.769324	45.000000	-45.000000	2986.506645	-3163.535269	27.815932	32.146674	2509.914246	-86.175707	-3.222470	-3.267554	
3.3400	32.635221	24.257083	32.479910	-98.906242	854.557658	-50.192559	11.592652	33.565639	24.115734	45.000000	-45.000000	2072.622071	3313.871223	23.789065	180.000000	2883.258785	186.133312	19.017227	12.879403	-6.604609	-45.000000	-39.746618	45.000000	-45.000000	2986.471505	-3163.199911	27.298448	30.854482	2509.860319	-60.527746	-0.060516	-6.971576	
3.3500	32.602610	24.217612	32.597980	-98.525622	854.224740	-50.189391	11.630569	33.578839	24.164434	45.000000	-45.000000	2072.612040	3313.853857	23.793127	180.000000	2883.236727	186.061431	19.037299	12.852371	-6.623549	-45.000000	-39.726405	45.000000	-45.000000	2986.434563	-3162.778399	26.679803	29.318055	2509.824159	-29.681988	3.656454	-11.581869	
3.3600	32.569271	24.167611	32.723332	-98.057993	853.947600	-50.188589	11.659120	33.586208	24.225010	45.000000	-45.000000	2072.607388	3313.841433	23.795248	180.000000	2883.215231	185.991411	19.057625	12.820204	-6.653022	-45.000000	-39.707587	45.000000	-45.000000	2986.382181	-3162.381282	26.121190	27.996646	2509.812791	-1.657791	7.010270	-15.837828	
3.3700	32.533504	24.111861	32.863206	-97.494639	853.720950	-50.188780	11.704743	33.601681	24.305683	45.000000	-45.000000	2072.594257	3313.826279	23.802014	180.000000	2883.195081	185.920828	19.068242	12.798437	-6.682233	-45.000000	-39.683291	45.000000	-45.000000	2986.320748	-3162.027763	25.652589	26.919733	2509.827283	22.624439	9.866112	-19.600898	
3.3800	32.496760	24.045694	33.009130	-96.827536	853.538145	-50.189545	11.749981	33.607577	24.402063	45.000000	-45.000000	2072.585289	3313.811156	23.806962	180.000000	2883.170544	185.850833	19.076136	12.776692	-6.725189	-45.000000	-39.657148	45.000000	-45.000000	2986.243385	-3161.802138	25.398167	26.434283	2509.863603	37.223987	11.573695	-21.896305	
3.3900	32.457297	23.976343	33.169953	-96.049595	853.392281	-50.191452	11.802603	33.625845	24.513979	45.000000	-45.000000	2072.573085	3313.795968	23.815392	180.000000	2883.146912	185.770715	19.085445	12.763793	-6.771603	-45.000000	-39.621156	45.000000	-45.000000	2986.147345	-3161.683081	25.323275	26.426842	2509.908676	43.793930	12.328700	-22.948593	
3.4000	32.417568	23.899004	33.338199	-95.155053	853.276488	-50.195919	11.854431	33.631077	24.641784	45.000000	-45.000000	2072.563710	3313.781449	23.822988	180.000000	2883.115918	185.671896	19.091690	12.756514	-6.830404	-45.000000	-39.581497	45.000000	-45.000000	2986.037653	-3161.657397	25.400997	26.831164	2509.962235	43.736297	12.336581	-22.942496	
3.4100	32.372854	23.824162	33.522346	-94.139386	853.183998	-50.204822	11.908545	33.651612	24.779793	45.000000	-45.000000	2072.548040	3313.768679	23.835713	180.000000	2883.079561	185.539525	19.101363	12.768285	-6.886769	-45.000000	-39.538245	45.000000	-45.000000	2985.912445	-3161.633180	25.488910	27.266402	2510.015438	43.641510	12.348689	-22.918945	
3.4200	32.317829	23.754213	33.723484	-92.999466	853.108071	-50.220086	11.963801	33.658891	24.920219	45.000000	-45.000000	2072.535364	3313.759265	23.849159	180.000000	2883.031901	185.369686	19.103872	12.777047	-6.948611	-45.000000	-39.506144	45.000000	-45.000000	2985.780592	-3161.609966	25.588686	27.751771	2510.070515	43.519079	12.388453	-22.889666	
3.4300	32.252205	23.691856	33.944102	-91.733238	853.041721	-50.243229	12.016665	33.679651	25.064873	45.000000	-45.000000	2072.518827	3313.752806	23.866446	180.000000	2882.975940	185.163568	19.109781	12.804133	-6.999409	-45.000000	-39.485450	45.000000	-45.000000	2985.640147	-3161.591648	25.695893	28.281459	2510.127455	43.372246	12.430436	-22.856139	
3.4400	32.173103	23.636484	34.186652	-90.339706	852.977618	-50.275095	12.066731	33.686845	25.208632	45.000000	-45.000000	2072.505754	3313.749871	23.885713	180.000000	2882.906730	184.916788	19.108196	12.828562	-7.050043	-45.000000	-39.480131	45.000000	-45.000000	2985.499393	-3161.577615	25.811327	28.853397	2510.191863	43.213561	12.496947	-22.827719	
3.4500	32.079345	23.590718	34.454019	-88.818416	852.907974	-50.315802	12.108559	33.706058	25.350600	45.000000	-45.000000	2072.492471	3313.749581	23.909009	180.000000	2882.827861	184.630026	19.108375	12.870968	-7.084632	-45.000000	-39.492028	45.000000	-45.000000	2985.361238	-3161.571562	25.932730	29.462916	2510.264464	43.047949	12.562502	-22.809002	
3.4600	31.967038	23.555336	34.750115	-87.169573	852.824678	-50.364812	12.137251	33.711556	25.487864	45.000000	-45.000000	2072.486953	3313.750818	23.932401	180.000000	2882.737952	184.299134	19.099933	12.913307	-7.109344	-45.000000	-39.521179	45.000000	-45.000000	2985.229727	-3161.569595	26.058624	30.100841	2510.347198	42.891259	12.645586	-22.799924	
3.4700	31.835495	23.531553	35.077040	-85.393996	852.719506	-50.421087	12.152811	33.722547	25.625479	45.000000	-45.000000	2072.487381	3313.751381	23.953753	180.000000	2882.642669	183.926720	19.089859	12.972970	-7.116306	-45.000000	-39.560842	45.000000	-45.000000	2985.101725	-3161.569211	26.186924	30.759996	2510.434114	42.748735	12.726124	-22.789525	
3.4800	31.684327	23.518462	35.433337	-83.493391	852.584363	-50.483193	12.155312	33.721372	25.765424	45.000000	-45.000000	2072.497670	3313.748952	23.970244	180.000000	2882.541448	183.512002	19.070650	13.036328	-7.113130	-45.000000	-39.606295	45.000000	-45.000000	2984.974783	-3161.565204	26.317466	31.433585	2510.520224	42.628139	12.819573	-22.767122	
3.4900	31.515946	23.516297	35.814536	-81.470421	852.411501	-50.549365	12.150196	33.724293	25.911606	45.000000	-45.000000	2072.514119	3313.740955	23.982751	180.000000	2882.438085	183.058097	19.047294	13.114118	-7.096721	-45.000000	-39.653162	45.000000	-45.000000	2984.847857	-3161.558254	26.452467	32.119461	2510.598753	42.525749	12.913290	-22.727761	
3.5000	31.335211	23.520975	36.211729	-79.328938	852.193720	-50.617520	12.140655	33.724374	26.067369	45.000000	-45.000000	2072.536107	3313.724517	23.995126	180.000000	2882.332057	182.563146	19.014778	13.197025	-7.071942	-45.000000	-39.695656	45.000000	-45.000000	2984.719952	-3161.547518	26.596257	32.812225	2510.662165	42.443861	13.017631	-22.671864	
3.5100	31.148113	23.529696	36.617896	-77.073896	851.924574	-50.685298	12.137592	33.731300	26.236169	45.000000	-45.000000	2072.559928	3313.697036	24.010073	180.000000	2882.223271	182.028270	18.976120	13.290219	-7.043942	-45.000000	-39.726885	45.000000	-45.000000	2984.588582	-3161.534586	26.748420	33.507854	2510.707662	42.379953	13.125038	-22.597680	
3.5200	30.954393	23.546464	37.032007	-74.711117	851.598546	-50.750150	12.137998	33.737577	26.412376	45.000000	-45.000000	2072.589259	3313.661713	24.024558	180.000000	2882.109530	181.454147	18.929754	13.390086	-7.017518	-45.000000	-39.751899	45.000000	-45.000000	2984.449150	-3161.519147	26.899282	34.195018	2510.741475	42.333308	13.236217	-22.503822	
3.5300	30.760451	23.566725	37.446594	-72.246890	851.211269	-50.809475	12.153568	33.752306	26.596238	45.000000	-45.000000	2072.619478	3313.615817	24.046112	180.000000	2881.992170	180.840555	18.875585	13.497096	-6.995359	-45.000000	-39.767182	45.000000	-45.000000	2984.308076	-3161.505692	27.053631	34.870919	2510.763104	42.302239	13.346325	-22.396161	
3.5400	30.566904	23.591926	37.860968	-69.687494	850.759683	-50.860740	12.180828	33.775698	26.784851	45.000000	-45.000000	2072.651554	3313.561426	24.076124	180.000000	2881.871573	180.184614	18.811850	13.610349	-6.977941	-45.000000	-39.772903	45.000000	-45.000000	2984.165563	-3161.493073	27.208126	35.526101	2510.772535	42.288821	13.453319	-22.273963	
3.5500	30.377276	23.620311	38.272536	-67.038895	850.242324	-50.901640	12.228002	33.810559	26.979393	45.000000	-45.000000	2072.683576	3313.496966	24.115862	180.000000	2881.746973	179.485577	18.737659	13.729373	-6.972100	-45.000000	-39.763389	45.000000	-45.000000	2984.021209	-3161.481996	27.361337	36.157123	2510.769164	42.292009	13.555506	-22.133030	
3.5600	30.187112	23.659879	38.687842	-64.306757	849.659470	-50.930188	12.294244	33.855147	27.178985	45.000000	-45.000000	2072.718344	3313.424088	24.156955	180.000000	2881.620141	178.741830	18.651369	13.853946	-6.988058	-45.000000	-39.746156	45.000000	-45.000000	2983.869128	-3161.469345	27.499068	36.760148	2510.758218	42.306894	13.648839	-21.966849	
3.5700	30.000780	23.705921	39.101249	-61.496924	849.013368	-50.944839	12.378420	33.910325	27.384647	45.000000	-45.000000	2072.755030	3313.340896	24.202875	180.000000	2881.489626	177.956711	18.551899	13.984069	-7.020473	-45.000000	-39.718448	45.000000	-45.000000	2983.714863	-3161.460638	27.626128	37.332286	2510.739184	42.327246	13.735242	-21.781840	
3.5800	29.815538	23.764261	39.516249	-58.615527	848.307831	-50.944431	12.479850	33.972772	27.597062	45.000000	-45.000000	2072.797311	3313.248921	24.244933	180.000000	2881.356709	177.132170	18.437815	14.119951	-7.078613	-45.000000	-39.684428	45.000000	-45.000000	2983.553216	-3161.452911	27.732769	37.871716	2510.716166	42.348559	13.813016	-21.578089	
3.5900	29.631098	23.838112	39.931858	-55.669109	847.547892	-50.928230	12.585086	34.033250	27.808467	45.000000	-45.000000	2072.849150	3313.153501	24.279837	180.000000	2881.218131	176.281624	18.309966	14.261529	-7.149662	-45.000000	-39.645518	45.000000	-45.000000	2983.384411	-3161.451019	27.819236	38.367404	2510.694356	42.368252	13.884772	-21.359807	
3.6000	29.443389	23.933738	40.352822	-52.664079	846.738787	-50.895780	12.694739	34.087542	28.017829	45.000000	-45.000000	2072.913752	3313.056906	24.298779	180.000000	2881.074690	175.416631	18.168540	14.408124	-7.241489	-45.000000	-39.606411	45.000000	-45.000000	2983.203095	-3161.451421	27.877359	38.819118	2510.678214	42.386405	13.948031	-21.124535	
3.6100	29.256267	24.046008	40.771566	-49.606469	845.885251	-50.846862	12.794675	34.133009	28.217767	45.000000	-45.000000	2072.990720	3312.961556	24.310780	180.000000	2880.924157	174.555696	18.014406	14.557701	-7.331039	-45.000000	-39.563357	45.000000	-45.000000	2983.019478	-3161.462096	27.923750	39.221889	2510.663671	42.406246	14.007223	-20.884062	
3.6200	29.069197	24.172669	41.189546	-46.501167	844.990426	-50.781277	12.889692	34.174853	28.410766	45.000000	-45.000000	2073.077264	3312.864930	24.319136	180.000000	2880.768006	173.710612	17.848101	14.706598	-7.423959	-45.000000	-39.514074	45.000000	-45.000000	2982.836226	-3161.480353	27.959698	39.581450	2510.648862	42.433797	14.060192	-20.641481	
